<svg xmlns="http://www.w3.org/2000/svg" xmlns:xlink="http://www.w3.org/1999/xlink" width="729" height="441" viewBox="0 0 729 441">
  <defs>
    <clipPath id="clip-tecnica-cartoncino-1">
      <rect width="729" height="441"/>
    </clipPath>
  </defs>
  <g id="tecnica-cartoncino-1" clip-path="url(#clip-tecnica-cartoncino-1)">
    <path id="Tracciato_184" data-name="Tracciato 184" d="M6360.2,7350.145l42.074-124.066h188.795l-36.679,124.066Z" transform="translate(-6070.021 -7067.111)" fill="#a2828e"/>
    <path id="Tracciato_186" data-name="Tracciato 186" d="M6557.979,7226.079l30.937,110.64h-63.494C6522.965,7336.718,6557.979,7226.079,6557.979,7226.079Z" transform="translate(-6036.549 -7067.111)" fill="#7d616c"/>
    <path id="Tracciato_192" data-name="Tracciato 192" d="M6.232-6.15A23.079,23.079,0,0,0,6.6-3.034a13.1,13.1,0,0,1,.2,1.845q0,.574-.738.9A3.522,3.522,0,0,1,4.633.041,2.435,2.435,0,0,1,2.255-1.722a11.232,11.232,0,0,1-.533-3.936q0-1.107.123-2.87t.123-2.214a4.93,4.93,0,0,1-.656-1.046,2.7,2.7,0,0,1-.205-1.086A1.489,1.489,0,0,1,2.214-14.35a37.637,37.637,0,0,1,.451-5.371q.246-1.64.533-3.28a4.218,4.218,0,0,1-.328-.82,3.249,3.249,0,0,1-.2-.9q0-1.558,3.157-2.173a26.9,26.9,0,0,1,5.084-.41h.861a15.947,15.947,0,0,1,3.444.246q2.05.533,2.05,2.3a2.52,2.52,0,0,1-.431,1.312,1.211,1.211,0,0,1-1,.7,7.574,7.574,0,0,1-1.23-.164,7.624,7.624,0,0,0-1.312-.164h-2.87a7.023,7.023,0,0,0-2.788.533,14.614,14.614,0,0,0-.635,3.813q-.267,3.034-.308,3.731,2.009-.164,2.85-.184t1.373-.02a12.108,12.108,0,0,1,3.157.287,2.205,2.205,0,0,1,1.8,2.255A1.877,1.877,0,0,1,14.473-10.7a9.289,9.289,0,0,0-2.706-.41,46.4,46.4,0,0,0-5.33.328q0,1.066-.041,1.722Q6.232-6.4,6.232-6.15Zm17.712-.328a6.581,6.581,0,0,0,.2,1.6,2.635,2.635,0,0,0,1.333.328q1.045.082,1.333.082.82,0,1.742-.041t1.906-.123a10.581,10.581,0,0,1,3.034.328A2.19,2.19,0,0,1,35.26-2.132a2.541,2.541,0,0,1-.205.984,3.048,3.048,0,0,1-.533.861L33.866,0a9.975,9.975,0,0,1-1.558-.123q-2.337-.369-2.665-.369-1.517,0-3.075.123Q21.935,0,21.484,0q-1.148,0-1.558-1.394a13.289,13.289,0,0,1-.41-3.649q0-1.271.062-2.234t.143-2.194a7.068,7.068,0,0,1-.656-1.066,2.887,2.887,0,0,1-.287-1.23,1.26,1.26,0,0,1,.287-.861,2.794,2.794,0,0,1,.861-.615,33.89,33.89,0,0,1,.369-4.818q.369-2.562.738-5.022-.123-.246-.348-.841a2.9,2.9,0,0,1-.226-.8q0-1.763,3.772-2.337a34.908,34.908,0,0,1,5.084-.287,12.423,12.423,0,0,1,4.51.554,1.968,1.968,0,0,1,1.23,1.948,3.024,3.024,0,0,1-.533,1.455q-.533.882-1.066.635a4.511,4.511,0,0,0-1.23-.307q-.615-.062-1.722-.062h-.861q-.451,0-.9-.041a11.98,11.98,0,0,0-1.988.143,3.384,3.384,0,0,0-1.456.594,20.581,20.581,0,0,0-.615,4.039Q24.4-15.252,24.4-13.9q.656,0,1.927-.082t1.927-.082a15.12,15.12,0,0,1,3.321.246q2.009.533,2.009,2.173a1.936,1.936,0,0,1-1.435,2.05,14.007,14.007,0,0,0-3.157-.369q-.82,0-2.46.123t-2.419.123q0,.533-.082,1.845T23.944-6.478ZM47.806-4.715a8.132,8.132,0,0,1,2.911.41,2.275,2.275,0,0,1,1.64,2.214,2.827,2.827,0,0,1-.41,1.353A1.169,1.169,0,0,1,50.963,0a8.735,8.735,0,0,1-1.517-.164,22.792,22.792,0,0,0-2.706-.41q-1.394,0-4.1.287T38.622,0A1.816,1.816,0,0,1,37.29-.553a1.816,1.816,0,0,1-.553-1.333,1.711,1.711,0,0,1,1.025-1.6L37.72-5q0-3.034.267-6.806t.574-7.81q.308-4.039.308-6.458a1.024,1.024,0,0,1,.635-.943,2.788,2.788,0,0,1,1.292-.328,3.8,3.8,0,0,1,1.989.554,1.713,1.713,0,0,1,.923,1.537,66.977,66.977,0,0,1-.492,7.175Q42.148-8.569,42.148-5.9v1.517q.943,0,2.829-.164T47.806-4.715ZM59.45-1.353a1.107,1.107,0,0,1-.717.984A3.076,3.076,0,0,1,57.318,0a2.391,2.391,0,0,1-2.5-1.8,12.128,12.128,0,0,1-.328-3.4q0-3.116.287-6.786t.595-7.606q.307-3.936.307-6.519a1.024,1.024,0,0,1,.635-.943,2.867,2.867,0,0,1,1.333-.328,3.393,3.393,0,0,1,1.907.615,1.853,1.853,0,0,1,.923,1.6,15.982,15.982,0,0,1-.205,2.46q-.2,1.312-.41,2.542a145.229,145.229,0,0,0-.943,16.441,3.258,3.258,0,0,0,.164.943A9.327,9.327,0,0,1,59.45-1.353ZM78.31-8.774a9.344,9.344,0,0,1-2.255,6.15A7.333,7.333,0,0,1,70.274.246a6.682,6.682,0,0,1-5.74-2.829,10.536,10.536,0,0,1-1.845-6.355A27.285,27.285,0,0,1,63.837-15.7a31.986,31.986,0,0,1,3.2-7.995q2.3-3.895,4.8-3.9,2.255,0,3.9,2.5A8.329,8.329,0,0,1,77.162-20.5a4.115,4.115,0,0,1-.533,2.132,1.848,1.848,0,0,1-1.722.9,1.748,1.748,0,0,1-1.312-.369,1.489,1.489,0,0,1-.328-1.025q0-.205.041-.615t.041-.615a3.794,3.794,0,0,0-.328-1.558,1.905,1.905,0,0,0-.984-1.025q-2.05.738-3.649,6.027a26.727,26.727,0,0,0-1.353,7.462A9.63,9.63,0,0,0,67.568-5.7,2.686,2.686,0,0,0,70.151-3.69q2.665,0,3.731-3.69t2.542-3.69a1.62,1.62,0,0,1,1.373.7A2.629,2.629,0,0,1,78.31-8.774Zm8.364,7.421a1.107,1.107,0,0,1-.717.984A3.076,3.076,0,0,1,84.542,0a2.391,2.391,0,0,1-2.5-1.8,12.128,12.128,0,0,1-.328-3.4q0-3.116.287-6.786t.595-7.606q.307-3.936.307-6.519a1.024,1.024,0,0,1,.636-.943,2.867,2.867,0,0,1,1.332-.328,3.393,3.393,0,0,1,1.907.615,1.853,1.853,0,0,1,.923,1.6,15.982,15.982,0,0,1-.205,2.46q-.2,1.312-.41,2.542a145.23,145.23,0,0,0-.943,16.441,3.258,3.258,0,0,0,.164.943A9.327,9.327,0,0,1,86.674-1.353Zm13.612-6.068a30.878,30.878,0,0,0,.615,6.15A1.759,1.759,0,0,1,100-.246a3.447,3.447,0,0,1-1.558.328A2.18,2.18,0,0,1,96.268-1.64a10.6,10.6,0,0,1-.41-3.321V-5.9q0-2.583.205-5.474t.43-6.109q.226-3.218.226-5.227a15.369,15.369,0,0,0-1.681.082q-2.624.287-2.829.287l-.984-.164a4.191,4.191,0,0,1-.964-1.127A2.887,2.887,0,0,1,90-24.969a1.786,1.786,0,0,1,.512-1.517,2.463,2.463,0,0,1,1.455-.369q.328,0,.677.021t.717.02q1.763,0,7.667-.492,2.952-.246,4.633-.246a5.692,5.692,0,0,1,2.337.369,1.973,1.973,0,0,1,1.148,1.968,2.177,2.177,0,0,1-.492,1.64,1.989,1.989,0,0,1-1.394.451,12.7,12.7,0,0,1-1.373-.1q-.882-.1-1.045-.1a20.429,20.429,0,0,0-3.444.287q-.492,4.141-.8,8.057T100.286-7.421Zm26.527-.82q0,1.722-1.394,1.722a2.186,2.186,0,0,1-.492-.041q.492,1.394.738,2.05a15.069,15.069,0,0,0,.943,2.009,1.893,1.893,0,0,1,.369.943,1.445,1.445,0,0,1-.636,1.21,2.259,2.259,0,0,1-1.373.472q-2.091,0-3.321-3.69-.164-.451-.82-3.034l-1.23-.041h-2.091q-2.911,0-3.608.738-.9.943-.9,4.51a1.134,1.134,0,0,1-.595.964,2.128,2.128,0,0,1-1.168.39,2.24,2.24,0,0,1-1.7-.717,2.5,2.5,0,0,1-.676-1.784,41.65,41.65,0,0,1,1.722-6.909q1.722-5.8,3.444-10.558,2.05-5.74,2.952-6.642a2.328,2.328,0,0,1,1.722-.615,2.529,2.529,0,0,1,2.091,1.066q.041.082.82,3.977.492,2.542,1.394,7.3l.82,4.264a5.533,5.533,0,0,1,2.05.615A2.018,2.018,0,0,1,126.813-8.241Zm-8.9-10.537a79.99,79.99,0,0,0-2.952,8.487,37.288,37.288,0,0,1,4.756-.328q-.246-1.394-.615-2.952Q117.957-18.491,117.916-18.778Zm-5.33-16.769a1.106,1.106,0,0,1,1.23-1.271,3.317,3.317,0,0,1,1.189.779q.943.779,2.132,1.968a25.8,25.8,0,0,1,2.091,2.153,2.666,2.666,0,0,1,.7,1.127q0,1.23-1.148,1.23-.656,0-3.4-2.706Q112.586-34.973,112.586-35.547Z" transform="translate(340.76 234.005)" fill="#fdbb80"/>
    <path id="Tracciato_185" data-name="Tracciato 185" d="M8594.767,10282.492l292.327,101.217,139.383,55.673s38.946,2.436,47.873-21.907,5.68-31.647,6.086-34.486,0-120.091,0-120.091l-253.93-103.491s-32.693,91.468-64.227,100.374S8594.767,10282.492,8594.767,10282.492Z" transform="translate(-8304.591 -9999.459)" fill="#66608d" opacity="0.12"/>
  </g>
</svg>
