<svg xmlns="http://www.w3.org/2000/svg" xmlns:xlink="http://www.w3.org/1999/xlink" width="729" height="441" viewBox="0 0 729 441">
  <defs>
    <clipPath id="clip-tecnica-osservare">
      <rect width="729" height="441"/>
    </clipPath>
  </defs>
  <g id="tecnica-osservare" clip-path="url(#clip-tecnica-osservare)">
    <path id="Tracciato_184" data-name="Tracciato 184" d="M6360.2,7350.145l42.074-124.066h188.795l-36.679,124.066Z" transform="translate(-6070.021 -7067.078)" fill="#a2828e"/>
    <path id="Tracciato_186" data-name="Tracciato 186" d="M6557.979,7226.079l30.937,110.64h-63.494C6522.965,7336.718,6557.979,7226.079,6557.979,7226.079Z" transform="translate(-6036.549 -7067.111)" fill="#7d616c"/>
    <path id="Tracciato_185" data-name="Tracciato 185" d="M8594.767,10282.492l292.327,101.217,139.383,55.673s38.946,2.436,47.873-21.907,5.68-31.647,6.086-34.486,0-120.091,0-120.091l-253.93-103.491s-32.693,91.468-64.227,100.374S8594.767,10282.492,8594.767,10282.492Z" transform="translate(-8304.591 -9999.459)" fill="#66608d" opacity="0.12"/>
    <path id="_3151599_deal_geek_glasses_it_mame_icon" data-name="3151599_deal_geek_glasses_it_mame_icon" d="M79.245,20.6c-.029-.027-26.784-13.428-26.784-13.428A1.668,1.668,0,0,0,51.715,7H45.042a1.667,1.667,0,0,0-1.668,1.668V12a1.668,1.668,0,1,0,3.336,0V10.336h4.61L71.339,20.346H8.735L28.754,10.336h4.61V12A1.668,1.668,0,1,0,36.7,12V8.668A1.667,1.667,0,0,0,35.032,7H28.36a1.67,1.67,0,0,0-.746.176S.853,20.579.826,20.607A1.643,1.643,0,0,0,0,22.014v6.673a1.667,1.667,0,0,0,1.668,1.668H3.336v1.668A1.667,1.667,0,0,0,5,33.691H6.673V35.36a1.667,1.667,0,0,0,1.668,1.668h1.668V38.7a1.667,1.667,0,0,0,1.668,1.668H28.36A1.667,1.667,0,0,0,30.028,38.7V37.028H31.7a1.667,1.667,0,0,0,1.668-1.668V33.691h1.668A1.667,1.667,0,0,0,36.7,32.023V23.682h6.673v8.341a1.667,1.667,0,0,0,1.668,1.668H46.71V35.36a1.667,1.667,0,0,0,1.668,1.668h1.668V38.7a1.667,1.667,0,0,0,1.668,1.668H68.4A1.667,1.667,0,0,0,70.065,38.7V37.028h1.668A1.667,1.667,0,0,0,73.4,35.36V33.691H75.07a1.667,1.667,0,0,0,1.668-1.668V30.355h1.668a1.667,1.667,0,0,0,1.668-1.668V22.014A1.643,1.643,0,0,0,79.245,20.6ZM20.019,35.36H16.682V32.023H13.346V28.687H10.009V25.35h3.336v3.336h3.336v3.336h3.336Zm40.037,0H56.719V32.023H53.383V28.687H50.046V25.35h3.336v3.336h3.336v3.336h3.336Z" transform="translate(361.573 192.166)" fill="#fdbb80"/>
  </g>
</svg>
