<svg xmlns="http://www.w3.org/2000/svg" xmlns:xlink="http://www.w3.org/1999/xlink" width="729" height="441" viewBox="0 0 729 441">
  <defs>
    <clipPath id="clip-tecnica-scrivere">
      <rect width="729" height="441"/>
    </clipPath>
  </defs>
  <g id="tecnica-scrivere" clip-path="url(#clip-tecnica-scrivere)">
    <path id="Tracciato_184" data-name="Tracciato 184" d="M6360.2,7350.145l42.074-124.066h188.795l-36.679,124.066Z" transform="translate(-6070.197 -7067.078)" fill="#a2828e"/>
    <path id="Tracciato_186" data-name="Tracciato 186" d="M6557.979,7226.079l30.937,110.64h-63.494C6522.965,7336.718,6557.979,7226.079,6557.979,7226.079Z" transform="translate(-6036.549 -7067.111)" fill="#7d616c"/>
    <path id="Tracciato_185" data-name="Tracciato 185" d="M8594.767,10282.492l292.327,101.217,139.383,55.673s38.946,2.436,47.873-21.907,5.68-31.647,6.086-34.486,0-120.091,0-120.091l-253.93-103.491s-32.693,91.468-64.227,100.374S8594.767,10282.492,8594.767,10282.492Z" transform="translate(-8304.591 -9999.459)" fill="#66608d" opacity="0.12"/>
    <g id="_1167983_edit_pen_pencil_write_draw_icon" data-name="1167983_edit_pen_pencil_write_draw_icon" transform="translate(363.037 177.737)">
      <path id="Tracciato_228" data-name="Tracciato 228" d="M25.983,72.577l41.829-40.45L56.778,21.457,14.948,61.907a1.322,1.322,0,0,0-.477.7L11.22,74.555c-.006.023-.006.047-.011.069a1.388,1.388,0,0,0-.023.142c0,.043-.005.084-.005.127a1.05,1.05,0,0,0,.005.129,1.351,1.351,0,0,0,.023.141c0,.023,0,.047.011.069a.466.466,0,0,0,.018.048,1.124,1.124,0,0,0,.051.132c.017.038.034.077.053.113a1.194,1.194,0,0,0,.072.109,1.252,1.252,0,0,0,.077.106,1.237,1.237,0,0,0,.09.093,1.137,1.137,0,0,0,.1.087,1.02,1.02,0,0,0,.108.075,1.188,1.188,0,0,0,.114.069c.037.019.076.036.116.052a1.29,1.29,0,0,0,.137.05c.017.005.032.013.049.018s.048.006.072.011c.048.01.1.016.146.021a1.034,1.034,0,0,0,.133.006c.045,0,.087,0,.132,0s.1-.013.147-.022c.024-.006.049-.006.072-.011L25.259,73.04A1.361,1.361,0,0,0,25.983,72.577Zm-9.773-1.22a1.4,1.4,0,0,0-1.166-.373l1.89-6.945,6.845,6.619L16.6,72.485A1.3,1.3,0,0,0,16.21,71.357Z" transform="translate(0 -2.948)" fill="#fdbb80"/>
      <path id="Tracciato_229" data-name="Tracciato 229" d="M102.424,26.813l-11.3-11.3,4.329-4.329a21.26,21.26,0,0,1,11.3,11.3Z" transform="translate(-32.994 1.381)" fill="#fdbb80"/>
    </g>
  </g>
</svg>
